<?xml version="1.0"?>
<svg version="1.1" xmlns="http://www.w3.org/2000/svg" width="400px" height="80px" style=""><path fill="#ffffff" d="M65.29296875,61.5859375l-1.037109375-2.671875l-0.140625,0q-1.353515625,1.705078125-2.7861328125,2.3642578125t-3.7353515625,0.6591796875q-2.830078125,0-4.4560546875-1.6171875t-1.6259765625-4.60546875q0-3.12890625,2.1884765625-4.6142578125t6.6005859375-1.6435546875l3.41015625-0.10546875l0-0.861328125q0-2.98828125-3.05859375-2.98828125q-2.35546875,0-5.537109375,1.423828125l-1.775390625-3.62109375q3.392578125-1.775390625,7.5234375-1.775390625q3.955078125,0,6.064453125,1.72265625t2.109375,5.23828125l0,13.095703125l-3.744140625,0z M63.7109375,52.48046875l-2.07421875,0.0703125q-2.337890625,0.0703125-3.48046875,0.84375t-1.142578125,2.35546875q0,2.267578125,2.6015625,2.267578125q1.86328125,0,2.9794921875-1.072265625t1.1162109375-2.84765625l0-1.6171875z M83.25376953125,61.9375q-3.462890625,0-5.4404296875-2.689453125t-1.9775390625-7.453125q0-4.833984375,2.0126953125-7.5322265625t5.5458984375-2.6982421875q3.708984375,0,5.66015625,2.8828125l0.17578125,0q-0.404296875-2.197265625-0.404296875-3.919921875l0-6.29296875l5.37890625,0l0,27.3515625l-4.11328125,0l-1.037109375-2.548828125l-0.228515625,0q-1.828125,2.900390625-5.572265625,2.900390625z M85.13462890625,57.666015625q2.056640625,0,3.0146484375-1.1953125t1.0458984375-4.060546875l0-0.580078125q0-3.1640625-0.9755859375-4.53515625t-3.1728515625-1.37109375q-1.79296875,0-2.7861328125,1.5205078125t-0.9931640625,4.4208984375t1.001953125,4.3505859375t2.865234375,1.4501953125z M110.4255078125,45.37890625q-1.705078125,0-2.671875,1.0810546875t-1.107421875,3.0673828125l7.5234375,0q-0.03515625-1.986328125-1.037109375-3.0673828125t-2.70703125-1.0810546875z M111.1813671875,61.9375q-4.74609375,0-7.41796875-2.619140625t-2.671875-7.41796875q0-4.939453125,2.4697265625-7.6376953125t6.8291015625-2.6982421875q4.166015625,0,6.486328125,2.373046875t2.3203125,6.556640625l0,2.6015625l-12.673828125,0q0.087890625,2.28515625,1.353515625,3.568359375t3.55078125,1.283203125q1.775390625,0,3.357421875-0.369140625t3.3046875-1.177734375l0,4.1484375q-1.40625,0.703125-3.005859375,1.0458984375t-3.90234375,0.3427734375z"/><path fill="#ffffff" d="M135.38,40.36l0.324,2.628c0.9-1.008,2.988-2.988,5.436-2.988c1.8,0,3.24,0.54,3.24,0.54l-0.18,5.22l-2.34,0l-0.54-2.7c-2.7,0-4.428,1.764-5.22,2.808l0,10.692l3.6,0.9l0,1.98l-10.26,0l0-1.98l3.06-0.9l0-13.32l-3.06-0.72l0-1.98z M169.7096,57.28l0,1.98l-5.94,0.18l-0.36-2.52c-0.864,0.756-3.708,2.88-6.66,2.88c-3.96,0-5.76-2.484-5.76-6.444l0-10.116l-3.06-0.72l0-1.98l6.66-0.18l0,12.636c0,2.52,0.9,3.744,3.24,3.744c3.06,0,5.22-2.844,5.22-2.844l0-10.656l-3.06-0.72l0-1.98l6.66-0.18l0,16.2z M177.2552,53.68l0.396,3.096s1.08,0.324,3.024,0.324c2.16,0,4.068-0.612,4.068-2.844c0-3.888-10.044-2.088-10.044-8.64c0-3.744,2.88-5.616,6.588-5.616c2.844,0,6.156,1.08,6.156,1.08l-0.108,4.86l-2.34,0l-0.576-2.808s-1.116-0.432-2.916-0.432c-1.836,0-3.204,0.576-3.204,2.412c0,3.852,10.044,2.376,10.044,8.532c0,4.14-3.6,6.156-7.92,6.156c-3.312,0-5.688-0.792-5.688-0.792l0-5.328l2.52,0z M199.8128,40.36l0.324,2.556c0.828-0.792,3.564-2.916,6.516-2.916c2.592,0,4.176,1.224,5.004,3.096c0.468-0.468,3.384-3.096,6.696-3.096c3.96,0,5.58,2.52,5.58,6.48l0,10.08l2.7,0.9l0,1.98l-8.64,0l0-1.98l2.34-0.9l0-9.72c0-2.52-0.72-3.78-3.06-3.78c-3.06,0-5.04,2.88-5.04,2.88l0,10.62l2.34,0.9l0,1.98l-8.28,0l0-1.98l2.34-0.9l0-9.72c0-2.52-0.72-3.78-3.06-3.78c-3.06,0-5.04,2.88-5.04,2.88l0,10.62l2.34,0.9l0,1.98l-9,0l0-1.98l3.06-0.9l0-13.32l-3.06-0.72l0-1.98z M233.0624,45.94l-0.18-4.5s3.96-1.44,7.02-1.44c4.176,0,6.66,1.44,6.66,5.58l0,10.98l2.88,0.72l0,1.98l-5.58,0.18l-0.756-2.52c-1.224,1.224-3.384,2.88-5.904,2.88c-3.42,0-5.4-1.98-5.4-5.4c0-4.14,3.24-5.58,8.28-5.58l2.88,0l0-2.88c0-2.16-1.26-3.24-3.42-3.24s-3.636,0.54-3.636,0.54l-0.504,2.7l-2.34,0z M242.9624,51.16l-2.52,0c-3.6,0-4.968,0.9-4.968,3.06c0,1.62,1.008,2.7,2.628,2.7c2.7,0,4.86-2.88,4.86-2.88l0-2.88z M260.372,40.36l0.324,2.556c0.864-0.756,3.708-2.916,6.696-2.916c3.96,0,5.76,2.52,5.76,6.48l0,10.08l2.7,0.9l0,1.98l-8.64,0l0-1.98l2.34-0.9l0-9.72c0-2.52-0.9-3.78-3.24-3.78c-3.06,0-5.22,2.88-5.22,2.88l0,10.62l2.34,0.9l0,1.98l-9,0l0-1.98l3.06-0.9l0-13.32l-3.06-0.72l0-1.98z M282.2816,45.94l-0.18-4.5s3.96-1.44,7.02-1.44c4.176,0,6.66,1.44,6.66,5.58l0,10.98l2.88,0.72l0,1.98l-5.58,0.18l-0.756-2.52c-1.224,1.224-3.384,2.88-5.904,2.88c-3.42,0-5.4-1.98-5.4-5.4c0-4.14,3.24-5.58,8.28-5.58l2.88,0l0-2.88c0-2.16-1.26-3.24-3.42-3.24s-3.636,0.54-3.636,0.54l-0.504,2.7l-2.34,0z M292.1816,51.16l-2.52,0c-3.6,0-4.968,0.9-4.968,3.06c0,1.62,1.008,2.7,2.628,2.7c2.7,0,4.86-2.88,4.86-2.88l0-2.88z M304.5512,57.28c0-1.62,1.08-2.52,2.34-2.52c1.44,0,2.34,0.9,2.34,2.52s-1.08,2.52-2.34,2.52c-1.44,0-2.34-0.9-2.34-2.52z"/></svg>
